<svg  width="486" height="470" viewBox="0 0 486 470">
  <g id="hero-image" transform="translate(-1002 -324)">
    <rect id="Rectangle_5" data-name="Rectangle 5" width="131" height="116" rx="23" transform="translate(1112 447)" fill="#fff"/>
    <rect id="Rectangle_6" data-name="Rectangle 6" width="131" height="116" rx="23" transform="translate(1116 678)" fill="#fff"/>
    <rect id="Rectangle_7" data-name="Rectangle 7" width="131" height="116" rx="23" transform="translate(1235 324)" fill="#6e00ff"/>
    <rect id="Rectangle_10" data-name="Rectangle 10" width="131" height="116" rx="23" transform="translate(1357 431)" fill="#6e00ff" opacity="0.45"/>
    <rect id="Rectangle_8" data-name="Rectangle 8" width="131" height="116" rx="23" transform="translate(1243 555)" fill="#6e00ff"/>
    <rect id="Rectangle_9" data-name="Rectangle 9" width="131" height="116" rx="23" transform="translate(1002 562)" fill="#6e00ff"/>
    <g id="Ellipse_2" data-name="Ellipse 2" transform="translate(1243 440)" fill="#ff64cb" stroke="#707070" stroke-width="1">
      <ellipse cx="57" cy="57.5" rx="57" ry="57.5" stroke="none"/>
      <ellipse cx="57" cy="57.5" rx="56.5" ry="57" fill="none"/>
    </g>
    <g id="Ellipse_4" data-name="Ellipse 4" transform="translate(1243 440)" fill="#ff64cb" stroke="#707070" stroke-width="1">
      <ellipse cx="57" cy="57.5" rx="57" ry="57.5" stroke="none"/>
      <ellipse cx="57" cy="57.5" rx="56.5" ry="57" fill="none"/>
    </g>
    <g id="Ellipse_5" data-name="Ellipse 5" transform="translate(1243 440)" fill="#ff64cb" stroke="#707070" stroke-width="1">
      <ellipse cx="57" cy="57.5" rx="57" ry="57.5" stroke="none"/>
      <ellipse cx="57" cy="57.5" rx="56.5" ry="57" fill="none"/>
    </g>
    <g id="Ellipse_3" data-name="Ellipse 3" transform="translate(1133 563)" fill="#25b1f9" stroke="#707070" stroke-width="1">
      <ellipse cx="57" cy="57.5" rx="57" ry="57.5" stroke="none"/>
      <ellipse cx="57" cy="57.5" rx="56.5" ry="57" fill="none"/>
    </g>
  </g>
</svg>
